/* XPM */
static char * cooledit_16x16_xpm[] = {
"16 16 12 1",
" 	c None",
".	c DeepSkyBlue",
"X	c LightSkyBlue",
"o	c CornflowerBlue",
"O	c grey35",
"+	c blue1",
"@	c blue3",
"#	c grey40",
"$	c grey50",
"%	c grey55",
"&	c grey60",
"*	c blue4",
"      ....X     ",
"    ....XXXoo   ",
"   ..XXXXooooo  ",
"  OOOOoooooo++  ",
" OOOOOOooo+++++ ",
" OOOOOO +++++@@ ",
" OOOO## +++@@@@ ",
" OO####  @@@@   ",
" ####$$  @@     ",
" ##$$$$         ",
" $$$$%%      @@ ",
" $$%%%&&   @@@@ ",
"  %%&&&& @@@@** ",
"  &&&&&&&@@***  ",
"   &&&&&*****   ",
"    &&&****     "};
