/* XPM */
static char *magick[] = {
/* columns rows colors chars-per-pixel */
"48 48 32 1",
"  c gray0",
". c #0c0c0c",
"X c gray8",
"o c gray11",
"O c #232323",
"+ c #2c2c2c",
"@ c #343434",
"# c #3c3c3c",
"$ c #434343",
"% c #4b4b4b",
"& c #535353",
"* c gray36",
"= c #646464",
"- c #6c6c6c",
"; c #747474",
": c #7c7c7c",
"> c #848484",
", c gray55",
"< c #939393",
"1 c gray61",
"2 c gray64",
"3 c #acacac",
"4 c #b4b4b4",
"5 c #bbbbbb",
"6 c #c3c3c3",
"7 c #cbcbcb",
"8 c gray83",
"9 c gray86",
"0 c gray89",
"q c #ececec",
"w c #f3f3f3",
"e c #fefefe",
/* pixels */
"                                                ",
"                                                ",
"                                                ",
"                                                ",
"                                                ",
"                                                ",
"              $O                                ",
"             O>*X                               ",
"            X%;>=                               ",
"          .&&&,52*o        O&%$$$$%&O           ",
"          o3>$3975*.    .oX%,:><<><3*Xo.        ",
"          X<;#>5874=    $<;&%&->,:;<,,2%        ",
"          .#-,;;,508;X X&>1>;:242453352%+=+     ",
"            &1*#=1600-X$%%>2358850w654;&:5:X    ",
"            .o.%,=*<991--:;;,31<332465,14,2,.   ",
"               +%X.%>7053<*>65<<7527q948q3<,*+  ",
"                 X+@+*3893-2q6<10858eq5696:-2&  ",
"                X<,@oo$:79<<4<;>64,3772,,:,31#  ",
"                .1>@*&++=24641<1,>17731341581:%.",
"               .o%$%<<$o@:378599;:8e0430eqq045<X",
"               %-+O=<;@#<6;;23qw<<9ww848eew072&.",
"               +*Xo&=#o$57*&<<68<:4eew57wq5<1>#.",
"              XOOoO#%+X@:,%*>;<3>&:9w04705,:><* ",
"              :-O+#%*&@+@$$=;*;1>=*,22387,1776; ",
"        &-*===<-@$%*::&+o$>3:#&2553,:,7q936w071&",
"   .oOX+3965651=&*&*:>*@o%49,o#39ee6>1wew0000511",
"   $32,,341,<682;,-$%**$XO>6<+$<5qe922qeww99w5::",
"  &>,<,<41-*,70,*171$@%#oO&11$*250ee88eeeq3<41--",
"o+1>+$%-64;*2q9=@,e0&o@O@#@-:@%150w9540w06<><1,:",
"2<>%+$#&372;4eq:@-53%XXo$$o+$Xo&,56<&&><,,49763:",
"31=&&$$=>1,;;272>34<=@+#$@oo@%#O%,3<>,<-=4qew93:",
":=&*=#%==-><=*279q6:=&%*$O++%,;@O=47qe9>:qe9q4>>",
">-$@#+#&;28w4>2699<&&%%&@X+#%:>&@*39eew2,8067>*2",
">;&#@oO%>6ee1&;,<453,=#@oo$&%*==&=<800w3:3655<=*",
"<,;=$o+&;275=$:>:2qe5-$+XO=;&$$&==:2469<=21>:,& ",
"31:&%$$$$=:>,4083386;**$oO=;&$++$&=:,12=%1=XXo. ",
"&%#O@>;$&>469ee8><462*@OX.@@@;;&=:,,=$$Oo%O     ",
"    o4<@*4wewew6-&-12%      .=>=--:>@           ",
"    o5>.@,6534693O.oo.       XXXXXXX            ",
"    .&;;=<66;$%-*                               ",
"      %3>:13%                                   ",
"      .OXXoo.                                   ",
"                                                ",
"                                                ",
"                                                ",
"                                                ",
"                                                ",
"                                                "
};
