/* XPM */
static char * cooledit_32x322_xpm[] = {
/* columns rows colors chars-per-pixel */
"32 32 17 1",
" 	c None",
".	c Gray53",
"X	c Gray28",
"o	c Gray47",
"O	c Gray66",
"+	c #c5c5c5",
"@	c Gray59",
"#	c Gray34",
"$	c #b4b4b4",
"%	c #e7e7e7",
"&	c #bcbcbc",
"*	c #d7d7d7",
"=	c #fbfbfb",
"-	c #676767",
";	c #373737",
":	c Gray16",
">	c #161616",
/* pixels */
"                                ",
"                                ",
"                                ",
"                                ",
"         .                      ",
"        Xo.                     ",
"       OX++@      .o...@        ",
"       .X.++@   @oX#..o@@O      ",
"        O##$%& XX@O&*&=&&-#$    ",
"          .X-*+o.-.O.$@&+@+.O   ",
"            ;X$*$-%&@%&%=&%&-@  ",
"           $X::o*@O.o&.$+@.o$.  ",
"           -;@#>-&*$*-$=$$=*%OO ",
"          o>#.;#*#@$=.+=%$==*&# ",
"          :>;X>XOX.o$oo==$%&o.- ",
"         @;;X-X:;#o#@.-.@&*.**@ ",
"     &&$$.X##.-:;+O>@%=O.==*%*O@",
"  OO@O@o$*o@#X#;>.O:.&=*O==%+%oo",
" OX#-+o-*+;$=;;:;X@;@+=%+==+o@.o",
"O-;XX$$o%*X.O;>:X>;>;.&oX.o@%*&o",
"o#-;--oo#$+%@-X#::;.;;O+%&-=%%@o",
"o;;:X.*=.O++-#XX>;Xo-;@%=%.*+&#O",
".-X>X.*&;oo$=OX:>-#X#-o&+*-O@@o ",
"@-X#XXo.+=$$+-#;>-#X:X-o..;@    ",
"   $Xo%===o-OO     .oo..        ",
"   $:X$O@$&                     ",
"    O.O$                        ",
"                                ",
"                                ",
"                                ",
"                                ",
"                                "};
