#define hand_mask_width 24
#define hand_mask_height 20
#define hand_mask_x_hot 2
#define hand_mask_y_hot 2
static unsigned char hand_mask_bits[] = {
   0x0e, 0x00, 0x00, 0x3f, 0x00, 0x00, 0x7f, 0xb8, 0x01, 0xfe, 0xfe, 0x03,
   0xfc, 0xff, 0x07, 0xf8, 0xff, 0x0f, 0xf0, 0xff, 0x1f, 0xe0, 0xff, 0x3f,
   0xc0, 0xff, 0x7f, 0xe0, 0xff, 0x2b, 0xe0, 0xff, 0x5f, 0xe0, 0xff, 0x2a,
   0xc0, 0xff, 0x97, 0x80, 0xbf, 0x0a, 0x00, 0xff, 0x55, 0x00, 0xae, 0x0a,
   0x00, 0x78, 0x55, 0x00, 0xe0, 0x0a, 0x00, 0x80, 0x25, 0x00, 0x00, 0x0a};
