#define hand_width 24
#define hand_height 20
#define hand_x_hot 2
#define hand_y_hot 2
static unsigned char hand_bits[] = {
   0x00, 0x00, 0x00, 0x0e, 0x00, 0x00, 0x32, 0x00, 0x00, 0x44, 0xb8, 0x01,
   0x88, 0x46, 0x02, 0x10, 0x89, 0x04, 0x20, 0x12, 0x09, 0x40, 0x24, 0x00,
   0x80, 0x08, 0x00, 0x40, 0x01, 0x00, 0x40, 0x01, 0x00, 0x40, 0x02, 0x00,
   0x80, 0x04, 0x00, 0x00, 0x01, 0x00, 0x00, 0x06, 0x00, 0x00, 0x18, 0x00,
   0x00, 0x60, 0x00, 0x00, 0x80, 0x01, 0x00, 0x00, 0x00, 0x00, 0x00, 0x00};
