#define hour_mask_width 21
#define hour_mask_height 36
#define hour_mask_x_hot 10
#define hour_mask_y_hot 18
static unsigned char hour_mask_bits[] = {
   0xff, 0xff, 0x1f, 0xff, 0xff, 0x1f, 0xff, 0xff, 0x1f, 0xff, 0xff, 0x1f,
   0xff, 0xff, 0x1f, 0xff, 0xff, 0x1f, 0xfe, 0xff, 0x0f, 0xfe, 0xff, 0x0f,
   0xfc, 0xff, 0x07, 0xfc, 0xff, 0x07, 0xf8, 0xff, 0x03, 0xf0, 0xff, 0x01,
   0xe0, 0xff, 0x00, 0xc0, 0x7f, 0x00, 0x80, 0x3f, 0x00, 0x00, 0x1f, 0x00,
   0x00, 0x1f, 0x00, 0x00, 0x0e, 0x00, 0x00, 0x0e, 0x00, 0x00, 0x1f, 0x00,
   0x00, 0x1f, 0x00, 0x80, 0x3f, 0x00, 0xc0, 0x7f, 0x00, 0xe0, 0xff, 0x00,
   0xf0, 0xff, 0x01, 0xf8, 0xff, 0x03, 0xfc, 0xff, 0x07, 0xfc, 0xff, 0x07,
   0xfe, 0xff, 0x0f, 0xfe, 0xff, 0x0f, 0xff, 0xff, 0x1f, 0xff, 0xff, 0x1f,
   0xff, 0xff, 0x1f, 0xff, 0xff, 0x1f, 0xff, 0xff, 0x1f, 0xff, 0xff, 0x1f};
