#define hour_width 21
#define hour_height 36
#define hour_x_hot 10
#define hour_y_hot 18
static unsigned char hour_bits[] = {
   0xff, 0xff, 0x1f, 0xff, 0xff, 0x1f, 0x01, 0x00, 0x10, 0x01, 0x00, 0x10,
   0x03, 0x00, 0x18, 0x05, 0x00, 0x14, 0x0a, 0x00, 0x0a, 0x56, 0x40, 0x0d,
   0xac, 0xa0, 0x06, 0x54, 0x51, 0x05, 0xa8, 0xaa, 0x02, 0x50, 0x55, 0x01,
   0xa0, 0xaa, 0x00, 0x40, 0x55, 0x00, 0x80, 0x2a, 0x00, 0x00, 0x15, 0x00,
   0x00, 0x1b, 0x00, 0x00, 0x0e, 0x00, 0x00, 0x0a, 0x00, 0x00, 0x15, 0x00,
   0x00, 0x11, 0x00, 0x80, 0x24, 0x00, 0x40, 0x40, 0x00, 0x20, 0x84, 0x00,
   0x10, 0x00, 0x01, 0x08, 0x04, 0x02, 0x04, 0x00, 0x04, 0x04, 0x04, 0x04,
   0x02, 0x0a, 0x08, 0x02, 0x15, 0x08, 0x81, 0x2a, 0x10, 0x41, 0x55, 0x10,
   0xa1, 0xaa, 0x10, 0x51, 0x55, 0x11, 0xff, 0xff, 0x1f, 0xff, 0xff, 0x1f};
