#define left_ptr_mask_width 20
#define left_ptr_mask_height 20
#define left_ptr_mask_x_hot 3
#define left_ptr_mask_y_hot 1
static unsigned char left_ptr_mask_bits[] = {
   0x0c, 0x00, 0xf0, 0x1c, 0x00, 0xf0, 0x3c, 0x00, 0xf0, 0x78, 0x00, 0xf0,
   0xf8, 0x00, 0xf0, 0xf8, 0x01, 0xf0, 0xf0, 0x03, 0xf0, 0xf0, 0x07, 0xf0,
   0xf0, 0x0f, 0xf0, 0xe0, 0x1f, 0xf0, 0xe0, 0x3f, 0xf0, 0xe0, 0x7f, 0xf0,
   0xc0, 0xff, 0xf0, 0xc0, 0xff, 0xf1, 0xc0, 0x07, 0xf0, 0x80, 0x07, 0xf0,
   0x80, 0x03, 0xf0, 0x80, 0x03, 0xf0, 0x00, 0x01, 0xf0, 0x00, 0x01, 0xf0};
