#define left_ptr_width 20
#define left_ptr_height 20
#define left_ptr_x_hot 3
#define left_ptr_y_hot 1
static unsigned char left_ptr_bits[] = {
   0x00, 0x00, 0x00, 0x08, 0x00, 0x00, 0x18, 0x00, 0x00, 0x30, 0x00, 0x00,
   0x70, 0x00, 0x00, 0xf0, 0x00, 0x00, 0xe0, 0x01, 0x00, 0xe0, 0x03, 0x00,
   0xe0, 0x07, 0x00, 0xc0, 0x0f, 0x00, 0xc0, 0x1f, 0x00, 0xc0, 0x3f, 0x00,
   0x80, 0x7f, 0x00, 0x80, 0x07, 0x00, 0x80, 0x03, 0x00, 0x00, 0x03, 0x00,
   0x00, 0x01, 0x00, 0x00, 0x01, 0x00, 0x00, 0x00, 0x00, 0x00, 0x00, 0x00};
